<svg width="32" height="32" viewBox="0 0 32 32" fill="none" xmlns="http://www.w3.org/2000/svg">
  <defs>
    <linearGradient id="faviconGradient" x1="0%" y1="0%" x2="100%" y2="100%">
      <stop offset="0%" style="stop-color:#3B82F6;stop-opacity:1" />
      <stop offset="50%" style="stop-color:#8B5CF6;stop-opacity:1" />
      <stop offset="100%" style="stop-color:#EC4899;stop-opacity:1" />
    </linearGradient>
  </defs>
  
  <!-- Background circle -->
  <circle cx="16" cy="16" r="16" fill="url(#faviconGradient)"/>
  
  <!-- Stylized "S" for Sarper -->
  <path d="M8 8 C8 6, 10 6, 12 6 C14 6, 16 6, 16 8 C16 10, 14 10, 12 10 C10 10, 8 10, 8 12 C8 14, 10 14, 12 14 C14 14, 16 14, 16 16 C16 18, 14 18, 12 18 C10 18, 8 18, 8 20 C8 22, 10 22, 12 22 C14 22, 16 22, 16 24" 
        stroke="white" stroke-width="2" fill="none" stroke-linecap="round" stroke-linejoin="round"/>
</svg>


